<?xml version="1.0" encoding="UTF-8"?>
<svg version="1.1" xmlns="http://www.w3.org/2000/svg" width="512" height="512">
<path d="M0 0 C0.86109375 0.80953125 1.7221875 1.6190625 2.609375 2.453125 C24.81477909 23.83099851 40.27277033 53.54613857 47.8125 83.25 C48.00739014 84.01666992 48.20228027 84.78333984 48.40307617 85.57324219 C51.52303623 98.62509802 52.40742347 111.51653098 52.375 124.875 C52.37478851 125.68304077 52.37457703 126.49108154 52.37435913 127.3236084 C52.33829974 141.19023855 51.22758312 154.47247239 48 168 C47.82339844 168.76038574 47.64679688 169.52077148 47.46484375 170.30419922 C37.94414241 209.87681802 12.50976704 245.06588735 -20 269 C-20.55574707 269.41604492 -21.11149414 269.83208984 -21.68408203 270.26074219 C-57.98450368 297.13179103 -105.075598 306.66078896 -149.45776367 301.23071289 C-195.33063768 294.30103146 -237.40940877 269.50684204 -265.34448242 232.49194336 C-270.41225404 225.6101529 -274.90008174 218.49464275 -279 211 C-279.51554443 210.06752441 -279.51554443 210.06752441 -280.04150391 209.11621094 C-294.11966951 183.33817143 -300.45129912 155.05086965 -300.3125 125.8125 C-300.30926727 124.58635986 -300.30926727 124.58635986 -300.30596924 123.33544922 C-300.25518137 111.33189688 -299.91735833 99.70088731 -297 88 C-296.70198486 86.76636719 -296.70198486 86.76636719 -296.39794922 85.5078125 C-288.44692795 53.39402471 -272.9112956 25.76365034 -250 2 C-249.236875 1.17371094 -248.47375 0.34742188 -247.6875 -0.50390625 C-218.41596231 -31.30824406 -173.72141844 -49.73724897 -131.453125 -50.96875 C-81.40960848 -51.60624703 -36.07608504 -34.83919069 0 0 Z M-233.0078125 31.75341797 C-260.73094705 63.01668808 -268.82479265 102.32750993 -267 143 C-266.35805392 149.85160011 -264.91307317 156.40033433 -263 163 C-262.67854004 164.1439624 -262.67854004 164.1439624 -262.35058594 165.31103516 C-252.29975885 200.26947959 -228.80917332 231.76366116 -197 249.75 C-161.66629235 269.15416439 -122.03289679 274.93065409 -83 264 C-77.4904126 262.37356615 -72.23154883 260.36583335 -67 258 C-66.35305176 257.71286133 -65.70610352 257.42572266 -65.03955078 257.12988281 C-48.61017125 249.72565574 -34.833566 239.56089817 -22 227 C-21.33742188 226.38769531 -20.67484375 225.77539062 -19.9921875 225.14453125 C-0.27023226 206.56920131 11.52743007 180.12077269 17 154 C17.18546387 153.11812012 17.37092773 152.23624023 17.56201172 151.32763672 C19.15537295 142.90314786 19.39919791 134.54614029 19.375 126 C19.37445618 125.27489227 19.37391235 124.54978455 19.37335205 123.80270386 C19.33215481 111.82073397 18.34639333 100.54429296 15 89 C14.67854004 87.8560376 14.67854004 87.8560376 14.35058594 86.68896484 C3.81233956 50.03519524 -20.97903461 19.10176179 -54 0.1875 C-114.72159152 -33.34564725 -186.70042178 -17.98614228 -233.0078125 31.75341797 Z " fill="#000000" transform="translate(380,131)"/>
<path d="M0 0 C3.75747469 1.90313653 6.43568639 4.46526413 8.2578125 8.27734375 C11.1102282 17.08334803 8.0014837 24.47996669 4.78320312 32.66577148 C-8.65777994 67.31281259 -8.84730093 106.57495906 -0.0703125 142.3515625 C0.10338867 143.06683105 0.27708984 143.78209961 0.45605469 144.51904297 C12.49002897 192.5770863 44.98561371 233.74415425 86.9296875 259.3515625 C108.52646871 272.25979667 131.86644701 279.45420093 156.44140625 284.2421875 C157.67503906 284.48453125 158.90867188 284.726875 160.1796875 284.9765625 C161.19546875 285.15445312 162.21125 285.33234375 163.2578125 285.515625 C167.55037805 286.85862065 170.17590774 289.28587387 172.7421875 292.9140625 C174.85169158 299.02052168 175.08827694 304.90070022 172.3046875 310.7890625 C167.78630507 315.66415933 164.07013819 317.69698767 157.57250977 318.30932617 C152.51867243 318.3900942 147.6762197 317.35789143 142.7421875 316.3515625 C141.60305908 316.1237207 140.46393066 315.89587891 139.2902832 315.66113281 C96.93980739 306.83332891 59.06134416 286.15121793 27.9296875 256.3515625 C27.43227051 255.88137695 26.93485352 255.41119141 26.42236328 254.92675781 C18.41629987 247.32961316 11.52219029 239.19212097 4.9296875 230.3515625 C4.50445801 229.79243164 4.07922852 229.23330078 3.64111328 228.65722656 C-3.61501357 219.09956006 -9.54892079 208.99598674 -15.0703125 198.3515625 C-15.65643311 197.22838623 -15.65643311 197.22838623 -16.25439453 196.08251953 C-43.1485995 143.88541589 -46.63480867 81.96720482 -29.37207031 26.20678711 C-22.44209797 4.77463378 -22.44209797 4.77463378 -15.0703125 0.3515625 C-10.20356498 -1.27068667 -4.94344847 -1.54832537 0 0 Z " fill="#000000" transform="translate(71.0703125,161.6484375)"/>
<path d="M0 0 C6.02249294 4.57709463 8.21889521 10.63325978 10.5625 17.5625 C10.8625293 18.43817627 11.16255859 19.31385254 11.47167969 20.21606445 C18.22757142 40.30889399 23.15922403 61.24786632 23.36328125 82.52734375 C23.37302979 83.37679565 23.38277832 84.22624756 23.39282227 85.10144043 C23.56696734 104.21473292 23.30149107 122.62848259 19.125 141.375 C18.93776367 142.2294873 18.75052734 143.08397461 18.55761719 143.96435547 C17.30417092 149.50744555 15.80520128 154.94701322 14.125 160.375 C13.88442871 161.1597168 13.64385742 161.94443359 13.39599609 162.75292969 C-0.29012847 206.49572008 -28.06415088 246.02884225 -64.875 273.375 C-65.82117188 274.09300781 -66.76734375 274.81101562 -67.7421875 275.55078125 C-95.57491849 296.32448626 -127.68487429 309.32927553 -161.6875 315.8125 C-162.58847412 315.9887793 -163.48944824 316.16505859 -164.41772461 316.34667969 C-171.18360836 317.54786689 -176.96609145 317.96666694 -183.1875 314.5625 C-187.2224625 311.2782282 -189.54716089 308.44916343 -190.11328125 303.140625 C-190.29682356 296.91950678 -189.67243001 293.37161843 -185.875 288.375 C-180.52978005 283.82422308 -174.9847744 283.2554123 -168.1875 282.1875 C-148.02871278 278.64949132 -128.78769978 272.30277759 -110.875 262.375 C-109.94816406 261.90964844 -109.02132812 261.44429688 -108.06640625 260.96484375 C-84.22098018 248.81182571 -63.78077769 229.63207375 -47.875 208.375 C-47.24851562 207.54355469 -46.62203125 206.71210938 -45.9765625 205.85546875 C-25.19445151 177.21908577 -10.87343108 140.40374557 -10.671875 104.73046875 C-10.66617493 103.92120438 -10.66047485 103.11194 -10.65460205 102.27815247 C-10.64520726 100.56964398 -10.63864021 98.86111782 -10.63476562 97.15258789 C-10.62516868 94.60723797 -10.59413836 92.06273551 -10.5625 89.51757812 C-10.46087958 73.96192408 -12.44552253 58.97078288 -16.75 44 C-17.13309326 42.61687622 -17.13309326 42.61687622 -17.52392578 41.20581055 C-18.98665368 36.04912862 -20.68554023 31.13164654 -22.75 26.1875 C-25.30458549 19.86304077 -26.30755846 13.90019939 -24.2109375 7.27734375 C-22.36048293 3.4879346 -19.70235909 0.90530032 -15.9296875 -0.96484375 C-10.57718901 -2.68456285 -5.03756612 -2.5728342 0 0 Z " fill="#000000" transform="translate(456.875,162.625)"/>
<path d="M0 0 C0.60666504 0.43699219 1.21333008 0.87398437 1.83837891 1.32421875 C10.06814786 7.31620959 17.66371018 13.95481488 25 21 C25.85343994 21.81259277 25.85343994 21.81259277 26.72412109 22.64160156 C50.05755127 44.96164321 50.05755127 44.96164321 50.3125 55.75 C50.26196419 61.03099209 49.69408863 64.00639067 46 68 C45.29875 68.763125 44.5975 69.52625 43.875 70.3125 C39.77407424 72.71956512 35.7344726 73.3773855 31 73 C25.53135946 71.20579434 22.16885292 68.62729196 18.5 64.3125 C18.02570557 63.7757666 17.55141113 63.2390332 17.06274414 62.68603516 C15.6957936 61.13451254 14.34521311 59.57037529 13 58 C-19.99528256 19.74166623 -66.52857551 -3.49860574 -116.9375 -7.625 C-166.40186818 -10.61460467 -216.24495486 4.37218322 -254 37 C-254.80308594 37.69351563 -255.60617188 38.38703125 -256.43359375 39.1015625 C-265.6903658 47.2752489 -274.35871631 55.81666992 -281.9296875 65.58984375 C-285.43690991 69.67278003 -288.3937021 72.43840418 -293.875 72.9375 C-300.13233221 73.31870449 -304.14149913 71.61608771 -308.875 67.5 C-312.54933423 63.17725385 -312.5920444 58.73731691 -312.51953125 53.24609375 C-311.55930409 47.24647894 -307.94607254 43.43399495 -304 39 C-303.33315186 38.24033936 -303.33315186 38.24033936 -302.65283203 37.46533203 C-299.70578628 34.12328957 -296.67659322 30.87038937 -293.58984375 27.65722656 C-292.54257353 26.56556958 -291.50074194 25.46866493 -290.46484375 24.36621094 C-281.77099139 15.1220444 -272.28372376 7.41407513 -262 0 C-261.41089844 -0.43376953 -260.82179688 -0.86753906 -260.21484375 -1.31445312 C-184.39212746 -56.81808883 -75.41512724 -54.44058629 0 0 Z " fill="#000000" transform="translate(387,74)"/>
</svg>
